<?xml version="1.0" encoding="utf-8"?>
<!-- Generator: Adobe Illustrator 15.1.0, SVG Export Plug-In . SVG Version: 6.00 Build 0)  -->
<!DOCTYPE svg PUBLIC "-//W3C//DTD SVG 1.1//EN" "http://www.w3.org/Graphics/SVG/1.1/DTD/svg11.dtd">
<svg version="1.1" id="Слой_1" xmlns="http://www.w3.org/2000/svg" xmlns:xlink="http://www.w3.org/1999/xlink" x="0px" y="0px"
	 width="37.338px" height="29.111px" viewBox="0 0 37.338 29.111" enable-background="new 0 0 37.338 29.111" xml:space="preserve">
<g>
	<defs>
		<rect id="SVGID_1_" y="0" width="37.338" height="29.111"/>
	</defs>
	<clipPath id="SVGID_2_">
		<use xlink:href="#SVGID_1_"  overflow="visible"/>
	</clipPath>
	<path clip-path="url(#SVGID_2_)" fill="none" stroke="#fff" d="M29.349,20.452c-1.296-0.002-2.346-1.051-2.348-2.347
		c0.002-1.295,1.053-2.345,2.348-2.348c1.296,0.003,2.344,1.053,2.347,2.348C31.692,19.402,30.646,20.45,29.349,20.452
		 M29.349,15.163c-1.625,0-2.942,1.318-2.942,2.942c0,1.626,1.317,2.942,2.942,2.942s2.942-1.316,2.942-2.942
		C32.291,16.481,30.974,15.163,29.349,15.163 M7.891,20.452c-1.296-0.002-2.345-1.05-2.348-2.347
		c0.003-1.295,1.053-2.345,2.348-2.348c1.295,0.003,2.343,1.053,2.346,2.348C10.234,19.402,9.186,20.45,7.891,20.452 M7.891,15.163
		c-1.625,0-2.943,1.318-2.944,2.942c0,1.626,1.319,2.942,2.944,2.942c1.626,0,2.941-1.316,2.941-2.942
		C10.832,16.481,9.517,15.163,7.891,15.163 M22.728,23.037c-1.006,1.275-2.371,2.042-3.868,2.043
		c-1.496-0.001-2.861-0.768-3.866-2.043c-1.005-1.273-1.636-3.052-1.635-5.021c-0.001-1.97,0.63-3.748,1.635-5.022
		c1.005-1.278,2.37-2.044,3.866-2.044c1.497,0,2.862,0.766,3.868,2.044c1.005,1.274,1.636,3.052,1.635,5.022
		C24.363,19.985,23.732,21.764,22.728,23.037 M18.859,10.355c-3.426,0.014-6.091,3.48-6.096,7.661
		c0.005,4.18,2.67,7.645,6.096,7.659c3.429-0.015,6.093-3.479,6.099-7.659C24.952,13.835,22.288,10.37,18.859,10.355 M33.197,24.18
		c-1.257,0.037-2.313,0.864-2.696,2.002c-0.006,0.015-0.012,0.031-0.017,0.046c-0.002,0.004-0.003,0.009-0.004,0.014
		c-0.023,0.073-0.044,0.147-0.061,0.222H7c-0.041-0.178-0.103-0.347-0.175-0.511c-0.394-0.91-1.23-1.582-2.243-1.737V11.996
		c0.339-0.052,0.659-0.161,0.949-0.319c0.836-0.45,1.427-1.296,1.528-2.285c0.004-0.041,0.01-0.082,0.013-0.124h23.276
		c0.09,1.504,1.309,2.702,2.819,2.761c0.011,0,0.021,0.002,0.029,0.002V24.18z M33.793,11.399l-0.217,0.019l-0.105,0.007
		c-0.067,0.007-0.127,0.011-0.186,0.011c-0.676-0.002-1.284-0.289-1.712-0.747c-0.29-0.311-0.499-0.699-0.587-1.133
		c-0.031-0.151-0.047-0.306-0.047-0.467c-0.001-0.003,0-0.01,0-0.015c0.001-0.021,0.003-0.05,0.006-0.094l0.01-0.309H6.467
		l0.008,0.307V8.98C6.476,9.039,6.48,9.074,6.481,9.088v0.001c0,1.057-0.7,1.946-1.661,2.24c-0.177,0.053-0.361,0.09-0.552,0.101
		l-0.282,0.015v13.32l0.099,0.006l0.183,0.01c0.317,0.018,0.617,0.101,0.888,0.232c0.45,0.22,0.82,0.575,1.053,1.018
		c0.124,0.236,0.21,0.496,0.248,0.771l0.01,0.066l0.025,0.191h24.436l0.035-0.259c0.074-0.541,0.334-1.021,0.71-1.38
		c0.422-0.399,0.987-0.646,1.612-0.646c0.053,0,0.114,0.005,0.188,0.012l0.249,0.02l0.071,0.006h0.001L33.793,11.399L33.793,11.399
		L33.793,11.399z M36.443,21.247l-0.847,0.168v-2.367l0.001-2.366l0.895,4.485v0.017C36.492,21.213,36.471,21.242,36.443,21.247
		 M35.001,13.668L35.001,13.668v7.643L35,28.203c0,0.032-0.028,0.063-0.061,0.063H2.844c-0.036,0-0.065-0.028-0.065-0.063V16.911
		V7.527C2.78,7.494,2.808,7.463,2.842,7.463h5.556h24.127h1.839h0.575c0.031,0,0.061,0.031,0.063,0.065L35.001,13.668z
		 M31.799,6.869H11.416l10.146-2.026l6.661-1.328c0.193,0.734,0.651,1.336,1.25,1.723c0.467,0.3,1.018,0.47,1.594,0.47
		c0.163,0,0.327-0.013,0.493-0.042L31.799,6.869z M2.183,7.527V13.9L0.846,7.193V7.19c0-0.028,0.022-0.059,0.05-0.063l31.477-6.28
		l-0.058-0.292l0.062,0.291h0.008c0.025-0.001,0.059,0.023,0.062,0.051l1.191,5.971h-1.23l-0.385-1.936h-0.001L31.711,5.02
		c-0.031,0.009-0.061,0.017-0.089,0.025c-0.033,0.009-0.063,0.016-0.089,0.021c-0.16,0.031-0.313,0.047-0.466,0.047
		c-0.273,0-0.541-0.049-0.79-0.138c-0.637-0.23-1.16-0.73-1.405-1.39c-0.043-0.115-0.079-0.235-0.104-0.36
		c-0.004-0.018-0.007-0.053-0.015-0.106l-0.021-0.143L28.706,2.81l-9.821,1.961L8.37,6.869H2.844c-0.159,0-0.301,0.057-0.413,0.149
		C2.281,7.139,2.184,7.321,2.183,7.527 M37.078,21.066l-0.001-0.009l-1.48-7.42V7.528c-0.001-0.365-0.293-0.658-0.657-0.659V6.869
		h-0.694L33.03,0.78c-0.064-0.314-0.336-0.529-0.646-0.53c-0.039,0-0.084,0.004-0.129,0.013L0.78,6.543
		C0.465,6.607,0.25,6.881,0.25,7.19c0,0.038,0.003,0.085,0.015,0.138l1.918,9.611v11.264c0,0.363,0.294,0.657,0.661,0.658h32.095
		c0.363-0.002,0.656-0.294,0.657-0.658v-6.181l0.964-0.192c0.314-0.064,0.527-0.339,0.527-0.646
		C37.088,21.141,37.085,21.103,37.078,21.066"/>
	<path clip-path="url(#SVGID_2_)" fill="none" stroke="#fff" stroke-width="0.5" stroke-miterlimit="10" d="M29.349,20.452
		c-1.296-0.002-2.346-1.051-2.348-2.347c0.002-1.295,1.053-2.345,2.348-2.348c1.296,0.003,2.344,1.053,2.347,2.348
		C31.692,19.402,30.646,20.45,29.349,20.452 M29.349,15.163c-1.625,0-2.942,1.318-2.942,2.942c0,1.626,1.317,2.942,2.942,2.942
		s2.942-1.316,2.942-2.942C32.291,16.481,30.974,15.163,29.349,15.163 M7.891,20.452c-1.296-0.002-2.345-1.05-2.348-2.347
		c0.003-1.295,1.053-2.345,2.348-2.348c1.295,0.003,2.343,1.053,2.346,2.348C10.234,19.402,9.186,20.45,7.891,20.452 M7.891,15.163
		c-1.625,0-2.943,1.318-2.944,2.942c0,1.626,1.319,2.942,2.944,2.942c1.626,0,2.941-1.316,2.941-2.942
		C10.832,16.481,9.517,15.163,7.891,15.163 M22.728,23.037c-1.006,1.275-2.371,2.042-3.868,2.043
		c-1.496-0.001-2.861-0.768-3.866-2.043c-1.005-1.273-1.636-3.052-1.635-5.021c-0.001-1.97,0.63-3.748,1.635-5.022
		c1.005-1.278,2.37-2.044,3.866-2.044c1.497,0,2.862,0.766,3.868,2.044c1.005,1.274,1.636,3.052,1.635,5.022
		C24.363,19.985,23.732,21.764,22.728,23.037 M18.859,10.355c-3.426,0.014-6.091,3.48-6.096,7.661
		c0.005,4.18,2.67,7.645,6.096,7.659c3.429-0.015,6.093-3.479,6.099-7.659C24.952,13.835,22.288,10.37,18.859,10.355 M33.197,24.18
		c-1.257,0.037-2.313,0.864-2.696,2.002c-0.006,0.015-0.012,0.031-0.017,0.046c-0.002,0.004-0.003,0.009-0.004,0.014
		c-0.023,0.073-0.044,0.147-0.061,0.222H7c-0.041-0.178-0.103-0.347-0.175-0.511c-0.394-0.91-1.23-1.582-2.243-1.737V11.996
		c0.339-0.052,0.659-0.161,0.949-0.319c0.836-0.45,1.427-1.296,1.528-2.285c0.004-0.041,0.01-0.082,0.013-0.124h23.276
		c0.09,1.504,1.309,2.702,2.819,2.761c0.011,0,0.021,0.002,0.029,0.002V24.18z M33.793,11.399l-0.217,0.019l-0.105,0.007
		c-0.067,0.007-0.127,0.011-0.186,0.011c-0.676-0.002-1.284-0.289-1.712-0.747c-0.29-0.311-0.499-0.699-0.587-1.133
		c-0.031-0.151-0.047-0.306-0.047-0.467c-0.001-0.003,0-0.01,0-0.015c0.001-0.021,0.003-0.05,0.006-0.094l0.01-0.309H6.467
		l0.008,0.307V8.98C6.476,9.039,6.48,9.074,6.481,9.088v0.001c0,1.057-0.7,1.946-1.661,2.24c-0.177,0.053-0.361,0.09-0.552,0.101
		l-0.282,0.015v13.32l0.099,0.006l0.183,0.01c0.317,0.018,0.617,0.101,0.888,0.232c0.45,0.22,0.82,0.575,1.053,1.018
		c0.124,0.236,0.21,0.496,0.248,0.771l0.01,0.066l0.025,0.191h24.436l0.035-0.259c0.074-0.541,0.334-1.021,0.71-1.38
		c0.422-0.399,0.987-0.646,1.612-0.646c0.053,0,0.114,0.005,0.188,0.012l0.249,0.02l0.071,0.006h0.001L33.793,11.399L33.793,11.399
		L33.793,11.399z M36.443,21.247l-0.847,0.168v-2.367l0.001-2.366l0.895,4.485v0.017C36.492,21.213,36.471,21.242,36.443,21.247
		 M35.001,13.668L35.001,13.668v7.643L35,28.203c0,0.032-0.028,0.063-0.061,0.063H2.844c-0.036,0-0.065-0.028-0.065-0.063V16.911
		V7.527C2.78,7.494,2.808,7.463,2.842,7.463h5.556h24.127h1.839h0.575c0.031,0,0.061,0.031,0.063,0.065L35.001,13.668z
		 M31.799,6.869H11.416l10.146-2.026l6.661-1.328c0.193,0.734,0.651,1.336,1.25,1.723c0.467,0.3,1.018,0.47,1.594,0.47
		c0.163,0,0.327-0.013,0.493-0.042L31.799,6.869z M2.183,7.527V13.9L0.846,7.193V7.19c0-0.028,0.022-0.059,0.05-0.063l31.477-6.28
		l-0.058-0.292l0.062,0.291h0.008c0.025-0.001,0.059,0.023,0.062,0.051l1.191,5.971h-1.23l-0.385-1.936h-0.001L31.711,5.02
		c-0.031,0.009-0.061,0.017-0.089,0.025c-0.033,0.009-0.063,0.016-0.089,0.021c-0.16,0.031-0.313,0.047-0.466,0.047
		c-0.273,0-0.541-0.049-0.79-0.138c-0.637-0.23-1.16-0.73-1.405-1.39c-0.043-0.115-0.079-0.235-0.104-0.36
		c-0.004-0.018-0.007-0.053-0.015-0.106l-0.021-0.143L28.706,2.81l-9.821,1.961L8.37,6.869H2.844c-0.159,0-0.301,0.057-0.413,0.149
		C2.281,7.139,2.184,7.321,2.183,7.527 M37.078,21.066l-0.001-0.009l-1.48-7.42V7.528c-0.001-0.365-0.293-0.658-0.657-0.659V6.869
		h-0.694L33.03,0.78c-0.064-0.314-0.336-0.529-0.646-0.53c-0.039,0-0.084,0.004-0.129,0.013L0.78,6.543
		C0.465,6.607,0.25,6.881,0.25,7.19c0,0.038,0.003,0.085,0.015,0.138l1.918,9.611v11.264c0,0.363,0.294,0.657,0.661,0.658h32.095
		c0.363-0.002,0.656-0.294,0.657-0.658v-6.181l0.964-0.192c0.314-0.064,0.527-0.339,0.527-0.646
		C37.088,21.141,37.085,21.103,37.078,21.066"/>
</g>
</svg>
