<?xml version="1.0" encoding="utf-8"?>
<!-- Generator: Adobe Illustrator 15.1.0, SVG Export Plug-In . SVG Version: 6.00 Build 0)  -->
<!DOCTYPE svg PUBLIC "-//W3C//DTD SVG 1.1//EN" "http://www.w3.org/Graphics/SVG/1.1/DTD/svg11.dtd">
<svg version="1.1" id="Слой_1" xmlns="http://www.w3.org/2000/svg" xmlns:xlink="http://www.w3.org/1999/xlink" x="0px" y="0px"
	 width="37.234px" height="31.929px" viewBox="0 0 37.234 31.929" enable-background="new 0 0 37.234 31.929" xml:space="preserve">
<g>
	<defs>
		<rect id="SVGID_1_" width="37.234" height="31.929"/>
	</defs>
	<clipPath id="SVGID_2_">
		<use xlink:href="#SVGID_1_"  overflow="visible"/>
	</clipPath>
	<path clip-path="url(#SVGID_2_)" fill="#241F21" d="M12.929,1.593c0.002-0.415,0.331-0.744,0.749-0.747h9.881
		c0.416,0.002,0.746,0.332,0.747,0.747V3.99c-0.001,0.412-0.331,0.742-0.749,0.746h-2.963V4.735h-3.956v0.001h-2.963
		c-0.416-0.004-0.745-0.334-0.748-0.749L12.929,1.593z M20,7.909c0,0.058-0.021,0.107-0.042,0.133
		c-0.02,0.021-0.021,0.017-0.021,0.02h-2.638c-0.001,0-0.003,0.001-0.023-0.02c-0.019-0.026-0.041-0.075-0.04-0.133V5.332H20V7.909z
		 M13.674,5.332h2.965v2.577c0.002,0.365,0.24,0.733,0.66,0.749h2.638c0.42-0.016,0.657-0.385,0.657-0.749l0.001-2.451V5.332h2.965
		c0.741-0.005,1.341-0.601,1.342-1.342l0.001-2.397c-0.002-0.743-0.602-1.34-1.341-1.342l-0.002,0.298V0.251h-9.884
		c-0.742,0.002-1.341,0.6-1.342,1.341L12.332,3.99C12.335,4.731,12.934,5.327,13.674,5.332 M9.855,26.62
		c-2.209,0-4.244-0.338-5.861-0.899c0.008-0.35,0.052-0.938,0.224-1.481c0.199-0.633,0.539-1.157,1.123-1.314
		c0.856-0.236,1.652-0.433,2.257-0.651c0.302-0.11,0.558-0.224,0.761-0.371c0.198-0.14,0.377-0.349,0.379-0.632
		c-0.002-0.047,0.001-0.098,0.001-0.153c0-0.002,0-0.008,0.001-0.034c0.001-0.034,0.003-0.073,0.004-0.112
		c0.003-0.069,0.007-0.134,0.011-0.2l0.008-0.133L8.67,20.542c-0.516-0.521-0.966-1.339-1.251-2.183l-0.052-0.153L7.21,18.167
		c-0.001,0-0.015-0.005-0.042-0.021c-0.044-0.024-0.104-0.079-0.159-0.156c-0.071-0.1-0.135-0.232-0.172-0.393
		c-0.025-0.1-0.036-0.195-0.035-0.283c-0.004-0.23,0.085-0.386,0.123-0.402l0.126-0.095l-0.003-0.155
		c-0.004-0.069-0.005-0.132-0.005-0.189c0.001-1.758,1.275-3.141,2.791-3.151l0.021,0.003L9.89,13.32
		c1.498,0.006,2.776,1.39,2.778,3.152c0,0.06-0.001,0.122-0.004,0.189l-0.004,0.155l0.126,0.094
		c0.038,0.016,0.127,0.172,0.122,0.402c0,0.088-0.011,0.187-0.033,0.285c-0.038,0.158-0.101,0.292-0.172,0.392
		c-0.055,0.077-0.115,0.132-0.153,0.152c-0.033,0.021-0.049,0.025-0.049,0.025l-0.156,0.041l-0.052,0.151
		c-0.286,0.844-0.737,1.662-1.252,2.183l-0.094,0.096l0.009,0.133c0.004,0.065,0.007,0.131,0.01,0.201
		c0.002,0.039,0.004,0.075,0.005,0.107c0,0.026,0.001,0.036,0.001,0.036c0.001,0.058,0.002,0.105,0.002,0.155
		c0,0.283,0.179,0.492,0.377,0.632c0.601,0.421,1.729,0.66,3.019,1.022c0.583,0.155,0.924,0.68,1.122,1.311
		c0.172,0.546,0.216,1.136,0.223,1.485C14.1,26.282,12.065,26.62,9.855,26.62 M14.528,22.348c-0.863-0.237-1.656-0.434-2.211-0.635
		c-0.278-0.1-0.493-0.203-0.617-0.294c-0.13-0.096-0.133-0.143-0.131-0.149c0-0.053-0.001-0.107-0.002-0.162
		c0-0.023-0.001-0.033-0.001-0.033c-0.001-0.051-0.002-0.092-0.005-0.13c0-0.027-0.001-0.056-0.003-0.083
		c0.534-0.58,0.96-1.367,1.255-2.185c0.014-0.009,0.029-0.017,0.042-0.025c0.132-0.077,0.24-0.19,0.332-0.317
		c0.12-0.168,0.212-0.37,0.267-0.601c0.034-0.144,0.049-0.285,0.051-0.422c-0.004-0.288-0.068-0.56-0.242-0.764v-0.076
		c-0.003-2.046-1.495-3.742-3.396-3.746l-0.022,0.001c-1.913,0.017-3.394,1.707-3.398,3.745c0,0.026,0.001,0.05,0.001,0.076
		c-0.175,0.205-0.238,0.478-0.242,0.765c0,0.136,0.015,0.277,0.052,0.424c0.054,0.228,0.147,0.43,0.267,0.599
		c0.091,0.128,0.199,0.239,0.337,0.321c0.012,0.007,0.024,0.015,0.038,0.021c0.293,0.816,0.719,1.604,1.253,2.183
		c-0.002,0.028-0.003,0.058-0.004,0.088c-0.001,0.034-0.003,0.074-0.005,0.116v0.01c0.001,0-0.001,0.006-0.001,0.04
		c0,0.047-0.002,0.101-0.002,0.155c0.002,0.007-0.001,0.054-0.131,0.149c-0.381,0.29-1.537,0.582-2.827,0.929
		c-0.871,0.243-1.314,1-1.534,1.713c-0.225,0.722-0.251,1.45-0.253,1.797c0,0.024,0,0.053,0.002,0.088l0.011,0.196l0.184,0.067
		c1.727,0.632,3.899,1.006,6.262,1.006c2.363,0,4.536-0.374,6.262-1.006l0.194-0.07l0.002-0.205v-0.079
		c-0.001-0.349-0.028-1.077-0.253-1.797C15.841,23.346,15.398,22.591,14.528,22.348 M21.042,24.376h12.499v-0.894H21.042V24.376z
		 M21.042,21.451h12.499v-0.894H21.042V21.451z M21.042,18.524h12.499v-0.893H21.042V18.524z M21.042,15.598h12.499v-0.894H21.042
		V15.598z M36.387,30.859c0,0.12-0.104,0.224-0.223,0.224H1.071c-0.12,0-0.224-0.104-0.225-0.224L0.847,7.516
		c0-0.123,0.104-0.225,0.224-0.225h14.815v0.155h-0.225c-0.453,0.003-0.819,0.368-0.82,0.82v0.949
		c0.001,0.453,0.367,0.818,0.82,0.82h5.912c0.454-0.001,0.819-0.367,0.821-0.82V8.266c-0.002-0.452-0.367-0.818-0.821-0.82h-0.225
		V7.291h14.815c0.119,0,0.223,0.102,0.223,0.225V30.859z M36.164,6.694H20.753v1.349h0.82c0.122,0,0.225,0.102,0.225,0.223v0.949
		c0,0.122-0.103,0.224-0.225,0.224h-5.912c-0.122,0-0.225-0.103-0.225-0.224V8.266c0-0.12,0.103-0.223,0.225-0.223h0.821V6.694
		H1.071C0.618,6.696,0.252,7.062,0.25,7.516v23.343c0.002,0.453,0.368,0.818,0.821,0.82h35.093c0.453-0.002,0.818-0.367,0.819-0.82
		l0.001-23.343C36.982,7.062,36.617,6.696,36.164,6.694"/>
	<path clip-path="url(#SVGID_2_)" fill="none" stroke="#000000" stroke-width="0.5" stroke-miterlimit="10" d="M12.929,1.593
		c0.002-0.415,0.331-0.744,0.749-0.747h9.881c0.416,0.002,0.746,0.332,0.747,0.747V3.99c-0.001,0.412-0.331,0.742-0.749,0.746
		h-2.963V4.735h-3.956v0.001h-2.963c-0.416-0.004-0.745-0.334-0.748-0.749L12.929,1.593z M20,7.909c0,0.058-0.021,0.107-0.042,0.133
		c-0.02,0.021-0.021,0.017-0.021,0.02h-2.638c-0.001,0-0.003,0.001-0.023-0.02c-0.019-0.026-0.041-0.075-0.04-0.133V5.332H20V7.909z
		 M13.674,5.332h2.965v2.577c0.002,0.365,0.24,0.733,0.66,0.749h2.638c0.42-0.016,0.657-0.385,0.657-0.749l0.001-2.451V5.332h2.965
		c0.741-0.005,1.341-0.601,1.342-1.342l0.001-2.397c-0.002-0.743-0.602-1.34-1.341-1.342l-0.002,0.298V0.251h-9.884
		c-0.742,0.002-1.341,0.6-1.342,1.341L12.332,3.99C12.335,4.731,12.934,5.327,13.674,5.332 M9.855,26.62
		c-2.209,0-4.244-0.338-5.861-0.899c0.008-0.35,0.052-0.938,0.224-1.481c0.199-0.633,0.539-1.157,1.123-1.314
		c0.856-0.236,1.652-0.433,2.257-0.651c0.302-0.11,0.558-0.224,0.761-0.371c0.198-0.14,0.377-0.349,0.379-0.632
		c-0.002-0.047,0.001-0.098,0.001-0.153c0-0.002,0-0.008,0.001-0.034c0.001-0.034,0.003-0.073,0.004-0.112
		c0.003-0.069,0.007-0.134,0.011-0.2l0.008-0.133L8.67,20.542c-0.516-0.521-0.966-1.339-1.251-2.183l-0.052-0.153L7.21,18.167
		c-0.001,0-0.015-0.005-0.042-0.021c-0.044-0.024-0.104-0.079-0.159-0.156c-0.071-0.1-0.135-0.232-0.172-0.393
		c-0.025-0.1-0.036-0.195-0.035-0.283c-0.004-0.23,0.085-0.386,0.123-0.402l0.126-0.095l-0.003-0.155
		c-0.004-0.069-0.005-0.132-0.005-0.189c0.001-1.758,1.275-3.141,2.791-3.151l0.021,0.003L9.89,13.32
		c1.498,0.006,2.776,1.39,2.778,3.152c0,0.06-0.001,0.122-0.004,0.189l-0.004,0.155l0.126,0.094
		c0.038,0.016,0.127,0.172,0.122,0.402c0,0.088-0.011,0.187-0.033,0.285c-0.038,0.158-0.101,0.292-0.172,0.392
		c-0.055,0.077-0.115,0.132-0.153,0.152c-0.033,0.021-0.049,0.025-0.049,0.025l-0.156,0.041l-0.052,0.151
		c-0.286,0.844-0.737,1.662-1.252,2.183l-0.094,0.096l0.009,0.133c0.004,0.065,0.007,0.131,0.01,0.201
		c0.002,0.039,0.004,0.075,0.005,0.107c0,0.026,0.001,0.036,0.001,0.036c0.001,0.058,0.002,0.105,0.002,0.155
		c0,0.283,0.179,0.492,0.377,0.632c0.601,0.421,1.729,0.66,3.019,1.022c0.583,0.155,0.924,0.68,1.122,1.311
		c0.172,0.546,0.216,1.136,0.223,1.485C14.1,26.282,12.065,26.62,9.855,26.62 M14.528,22.348c-0.863-0.237-1.656-0.434-2.211-0.635
		c-0.278-0.1-0.493-0.203-0.617-0.294c-0.13-0.096-0.133-0.143-0.131-0.149c0-0.053-0.001-0.107-0.002-0.162
		c0-0.023-0.001-0.033-0.001-0.033c-0.001-0.051-0.002-0.092-0.005-0.13c0-0.027-0.001-0.056-0.003-0.083
		c0.534-0.58,0.96-1.367,1.255-2.185c0.014-0.009,0.029-0.017,0.042-0.025c0.132-0.077,0.24-0.19,0.332-0.317
		c0.12-0.168,0.212-0.37,0.267-0.601c0.034-0.144,0.049-0.285,0.051-0.422c-0.004-0.288-0.068-0.56-0.242-0.764v-0.076
		c-0.003-2.046-1.495-3.742-3.396-3.746l-0.022,0.001c-1.913,0.017-3.394,1.707-3.398,3.745c0,0.026,0.001,0.05,0.001,0.076
		c-0.175,0.205-0.238,0.478-0.242,0.765c0,0.136,0.015,0.277,0.052,0.424c0.054,0.228,0.147,0.43,0.267,0.599
		c0.091,0.128,0.199,0.239,0.337,0.321c0.012,0.007,0.024,0.015,0.038,0.021c0.293,0.816,0.719,1.604,1.253,2.183
		c-0.002,0.028-0.003,0.058-0.004,0.088c-0.001,0.034-0.003,0.074-0.005,0.116v0.01c0.001,0-0.001,0.006-0.001,0.04
		c0,0.047-0.002,0.101-0.002,0.155c0.002,0.007-0.001,0.054-0.131,0.149c-0.381,0.29-1.537,0.582-2.827,0.929
		c-0.871,0.243-1.314,1-1.534,1.713c-0.225,0.722-0.251,1.45-0.253,1.797c0,0.024,0,0.053,0.002,0.088l0.011,0.196l0.184,0.067
		c1.727,0.632,3.899,1.006,6.262,1.006c2.363,0,4.536-0.374,6.262-1.006l0.194-0.07l0.002-0.205v-0.079
		c-0.001-0.349-0.028-1.077-0.253-1.797C15.841,23.346,15.398,22.591,14.528,22.348 M21.042,24.376h12.499v-0.894H21.042V24.376z
		 M21.042,21.451h12.499v-0.894H21.042V21.451z M21.042,18.524h12.499v-0.893H21.042V18.524z M21.042,15.598h12.499v-0.894H21.042
		V15.598z M36.387,30.859c0,0.12-0.104,0.224-0.223,0.224H1.071c-0.12,0-0.224-0.104-0.225-0.224L0.847,7.516
		c0-0.123,0.104-0.225,0.224-0.225h14.815v0.155h-0.225c-0.453,0.003-0.819,0.368-0.82,0.82v0.949
		c0.001,0.453,0.367,0.818,0.82,0.82h5.912c0.454-0.001,0.819-0.367,0.821-0.82V8.266c-0.002-0.452-0.367-0.818-0.821-0.82h-0.225
		V7.291h14.815c0.119,0,0.223,0.102,0.223,0.225V30.859z M36.164,6.694H20.753v1.349h0.82c0.122,0,0.225,0.102,0.225,0.223v0.949
		c0,0.122-0.103,0.224-0.225,0.224h-5.912c-0.122,0-0.225-0.103-0.225-0.224V8.266c0-0.12,0.103-0.223,0.225-0.223h0.821V6.694
		H1.071C0.618,6.696,0.252,7.062,0.25,7.516v23.343c0.002,0.453,0.368,0.818,0.821,0.82h35.093c0.453-0.002,0.818-0.367,0.819-0.82
		l0.001-23.343C36.982,7.062,36.617,6.696,36.164,6.694"/>
</g>
</svg>
