<?xml version="1.0" encoding="utf-8"?>
<!-- Generator: Adobe Illustrator 15.1.0, SVG Export Plug-In . SVG Version: 6.00 Build 0)  -->
<!DOCTYPE svg PUBLIC "-//W3C//DTD SVG 1.1//EN" "http://www.w3.org/Graphics/SVG/1.1/DTD/svg11.dtd">
<svg version="1.1" id="Слой_1" xmlns="http://www.w3.org/2000/svg" xmlns:xlink="http://www.w3.org/1999/xlink" x="0px" y="0px"
	 width="35.086px" height="36.6px" viewBox="0 0 35.086 36.6" enable-background="new 0 0 35.086 36.6" xml:space="preserve">
<g>
	<defs>
		<rect id="SVGID_1_" width="35.086" height="36.6"/>
	</defs>
	<clipPath id="SVGID_2_">
		<use xlink:href="#SVGID_1_"  overflow="visible"/>
	</clipPath>
	<path clip-path="url(#SVGID_2_)" fill="#241F21" d="M30.365,13.143c-1.805,0.001-3.358,1.039-4.115,2.547
		c-0.01-0.072-0.02-0.147-0.033-0.222c-0.003-0.017-0.005-0.033-0.008-0.051c-0.009-0.06-0.018-0.123-0.029-0.185
		c-0.003-0.025-0.008-0.047-0.011-0.072c-0.01-0.059-0.019-0.12-0.03-0.182c-0.005-0.027-0.009-0.051-0.014-0.078
		c-0.012-0.078-0.027-0.159-0.042-0.241c-0.005-0.025-0.009-0.051-0.013-0.079c-0.015-0.068-0.027-0.138-0.039-0.211
		c-0.008-0.04-0.018-0.08-0.024-0.121c-0.011-0.053-0.021-0.107-0.033-0.163c-0.008-0.045-0.018-0.091-0.025-0.137
		c-0.012-0.051-0.022-0.104-0.034-0.158c-0.009-0.048-0.02-0.096-0.031-0.145c-0.012-0.058-0.023-0.114-0.037-0.172
		c-0.02-0.087-0.04-0.177-0.06-0.266c-0.011-0.052-0.024-0.104-0.037-0.158c-0.013-0.058-0.028-0.115-0.042-0.175
		c-0.011-0.048-0.024-0.096-0.036-0.145c-0.015-0.062-0.031-0.122-0.046-0.185c-0.012-0.047-0.024-0.095-0.037-0.141
		c-0.016-0.065-0.033-0.128-0.051-0.194c-0.01-0.041-0.022-0.084-0.034-0.125c-0.034-0.125-0.07-0.252-0.104-0.38
		c-0.016-0.046-0.028-0.092-0.041-0.138c-0.021-0.066-0.039-0.13-0.06-0.195c-0.015-0.051-0.031-0.104-0.047-0.157
		c-0.019-0.063-0.041-0.128-0.06-0.192c-0.019-0.055-0.036-0.112-0.056-0.167c-0.019-0.063-0.04-0.124-0.061-0.188
		c-0.023-0.068-0.046-0.138-0.071-0.209c-0.015-0.045-0.03-0.09-0.046-0.135c-0.071-0.201-0.144-0.404-0.223-0.606
		c-0.021-0.054-0.041-0.107-0.063-0.16c-0.057-0.149-0.117-0.296-0.179-0.445c-0.029-0.071-0.059-0.139-0.088-0.209
		c-0.059-0.134-0.117-0.267-0.177-0.402c-0.033-0.073-0.068-0.147-0.104-0.22C24.064,8.149,24,8.018,23.936,7.888
		c-0.035-0.072-0.071-0.145-0.108-0.217c-0.071-0.139-0.146-0.276-0.22-0.414c-0.033-0.06-0.067-0.121-0.102-0.182
		c-0.104-0.186-0.215-0.373-0.329-0.556c-0.005-0.008-0.01-0.018-0.016-0.027c-0.12-0.193-0.246-0.383-0.375-0.572
		c-0.034-0.048-0.07-0.095-0.104-0.143c-0.096-0.136-0.192-0.271-0.295-0.403C22.338,5.312,22.289,5.25,22.24,5.19
		c-0.091-0.117-0.188-0.232-0.283-0.343c-0.054-0.065-0.111-0.127-0.167-0.19c-0.096-0.108-0.196-0.213-0.297-0.318
		C21.436,4.28,21.377,4.22,21.318,4.16c-0.109-0.105-0.222-0.209-0.333-0.31c-0.058-0.051-0.111-0.103-0.168-0.152
		c-0.145-0.124-0.291-0.243-0.444-0.358c-0.029-0.021-0.055-0.047-0.087-0.068c-0.181-0.136-0.37-0.267-0.564-0.39
		c-0.051-0.031-0.104-0.061-0.155-0.093c-0.117-0.07-0.233-0.142-0.354-0.209c7.208,0.67,13.065,5.666,14.675,12.198
		C33.041,13.779,31.778,13.144,30.365,13.143 M21.834,13.143c-1.707,0.001-3.188,0.929-3.985,2.305V2.621
		c0.049,0.018,0.097,0.033,0.142,0.05c0.113,0.044,0.224,0.091,0.334,0.139c0.099,0.044,0.198,0.09,0.294,0.137
		c0.107,0.052,0.213,0.107,0.317,0.164c0.094,0.051,0.185,0.104,0.276,0.159c0.103,0.06,0.201,0.124,0.3,0.188
		c0.089,0.059,0.177,0.118,0.263,0.18c0.095,0.068,0.189,0.139,0.283,0.211c0.082,0.064,0.163,0.131,0.244,0.197
		c0.092,0.076,0.184,0.152,0.271,0.233c0.077,0.069,0.152,0.14,0.227,0.212c0.086,0.083,0.172,0.166,0.255,0.252
		c0.072,0.075,0.145,0.152,0.214,0.228c0.08,0.089,0.161,0.177,0.24,0.269c0.067,0.078,0.133,0.16,0.199,0.24
		c0.076,0.093,0.153,0.187,0.225,0.284c0.063,0.083,0.124,0.167,0.185,0.251c0.073,0.099,0.144,0.196,0.213,0.298
		c0.058,0.086,0.115,0.172,0.17,0.259c0.069,0.102,0.136,0.206,0.2,0.31c0.054,0.088,0.104,0.177,0.158,0.265
		c0.061,0.106,0.127,0.214,0.186,0.322c0.049,0.089,0.095,0.179,0.145,0.269c0.058,0.11,0.116,0.219,0.174,0.331
		c0.046,0.089,0.087,0.18,0.131,0.27c0.054,0.113,0.11,0.226,0.163,0.339c0.042,0.09,0.08,0.182,0.12,0.272
		c0.049,0.115,0.101,0.229,0.148,0.342c0.037,0.09,0.072,0.181,0.108,0.271c0.046,0.115,0.094,0.231,0.139,0.346
		c0.035,0.092,0.068,0.185,0.103,0.277c0.04,0.111,0.083,0.223,0.122,0.335c0.146,0.422,0.279,0.841,0.399,1.249
		c0.001,0.002,0.001,0.003,0.001,0.005c0.061,0.201,0.115,0.399,0.167,0.594c0.002,0.007,0.003,0.015,0.005,0.022
		c0.053,0.19,0.101,0.378,0.146,0.56c0.003,0.011,0.004,0.022,0.006,0.033c0.044,0.178,0.085,0.354,0.124,0.527
		c0.003,0.015,0.006,0.028,0.009,0.044c0.037,0.166,0.072,0.327,0.106,0.485c0.003,0.02,0.006,0.037,0.01,0.056
		c0.031,0.151,0.06,0.3,0.086,0.442c0.004,0.024,0.008,0.045,0.013,0.068c0.025,0.135,0.049,0.266,0.07,0.393
		c0.002,0.01,0.003,0.019,0.005,0.029C24.706,13.887,23.361,13.144,21.834,13.143 M13.301,13.143
		c-1.532,0.001-2.885,0.751-3.721,1.901c0.203-1.192,0.555-2.824,1.151-4.523c0.042-0.119,0.087-0.239,0.131-0.359
		c0.032-0.085,0.06-0.169,0.092-0.255c0.034-0.084,0.07-0.17,0.103-0.255c0.049-0.122,0.096-0.245,0.147-0.366
		c0.033-0.079,0.068-0.156,0.101-0.232c0.057-0.13,0.111-0.26,0.171-0.388c0.034-0.076,0.072-0.149,0.107-0.224
		c0.063-0.129,0.123-0.258,0.189-0.387c0.038-0.075,0.079-0.149,0.117-0.225c0.066-0.126,0.134-0.253,0.202-0.378
		c0.042-0.074,0.086-0.146,0.129-0.22c0.071-0.123,0.143-0.246,0.217-0.367c0.046-0.075,0.094-0.146,0.14-0.219
		c0.077-0.118,0.153-0.236,0.23-0.351c0.052-0.073,0.104-0.144,0.155-0.217c0.08-0.111,0.16-0.222,0.243-0.332
		c0.056-0.072,0.114-0.141,0.169-0.212c0.084-0.105,0.17-0.21,0.257-0.311c0.062-0.07,0.122-0.139,0.185-0.205
		c0.089-0.1,0.178-0.196,0.27-0.29c0.066-0.068,0.133-0.132,0.2-0.197c0.093-0.091,0.187-0.18,0.285-0.266
		c0.071-0.065,0.143-0.125,0.216-0.188c0.097-0.082,0.197-0.163,0.297-0.241c0.077-0.058,0.156-0.116,0.235-0.173
		c0.101-0.074,0.205-0.145,0.31-0.215c0.083-0.053,0.168-0.106,0.253-0.159c0.107-0.063,0.215-0.126,0.324-0.185
		c0.09-0.049,0.18-0.097,0.273-0.143c0.11-0.055,0.222-0.105,0.337-0.155c0.096-0.043,0.193-0.084,0.293-0.123
		c0.047-0.02,0.096-0.034,0.144-0.053v12.762C16.449,14.046,14.987,13.144,13.301,13.143 M4.772,13.143
		c-1.437,0.001-2.718,0.655-3.565,1.682C2.802,8.265,8.683,3.241,15.92,2.577c-0.118,0.065-0.23,0.135-0.345,0.204
		c-0.056,0.035-0.117,0.068-0.172,0.103c-0.192,0.121-0.376,0.248-0.558,0.383c-0.045,0.035-0.088,0.07-0.133,0.105
		c-0.134,0.105-0.267,0.21-0.396,0.321c-0.065,0.054-0.125,0.113-0.188,0.17c-0.105,0.094-0.211,0.192-0.311,0.291
		c-0.066,0.064-0.128,0.128-0.193,0.194c-0.093,0.099-0.187,0.197-0.28,0.3c-0.06,0.067-0.122,0.135-0.181,0.206
		c-0.09,0.104-0.178,0.213-0.266,0.323c-0.055,0.066-0.11,0.134-0.161,0.202c-0.094,0.123-0.186,0.248-0.276,0.374
		c-0.041,0.058-0.083,0.114-0.124,0.173c-0.127,0.184-0.249,0.37-0.367,0.56c-0.022,0.036-0.044,0.073-0.065,0.109
		c-0.096,0.155-0.19,0.312-0.28,0.472c-0.041,0.073-0.08,0.145-0.12,0.219c-0.066,0.124-0.135,0.248-0.199,0.373
		c-0.043,0.083-0.084,0.166-0.125,0.249c-0.058,0.118-0.114,0.236-0.17,0.354c-0.041,0.086-0.081,0.173-0.121,0.26
		c-0.052,0.115-0.103,0.23-0.152,0.346c-0.038,0.088-0.077,0.175-0.112,0.263c-0.049,0.117-0.095,0.233-0.14,0.35
		c-0.034,0.087-0.07,0.173-0.103,0.258c-0.047,0.124-0.09,0.246-0.135,0.369c-0.026,0.072-0.053,0.143-0.079,0.216
		c-0.092,0.262-0.178,0.523-0.259,0.78c-0.001,0.006-0.003,0.011-0.004,0.016c-0.162,0.517-0.301,1.019-0.422,1.499
		c-0.002,0.004-0.003,0.01-0.004,0.016c-0.121,0.479-0.224,0.936-0.309,1.36c-0.001,0.006-0.003,0.011-0.004,0.018
		c-0.02,0.101-0.04,0.2-0.058,0.299c-0.001,0.004-0.001,0.007-0.002,0.011c-0.039,0.204-0.075,0.4-0.107,0.584v0.003
		c-0.014,0.084-0.028,0.165-0.041,0.245c-0.004,0.022-0.007,0.043-0.01,0.066c-0.009,0.057-0.018,0.112-0.027,0.167
		c-0.004,0.028-0.008,0.056-0.013,0.083c-0.005,0.043-0.011,0.085-0.018,0.126c-0.004,0.025-0.008,0.054-0.012,0.079
		C8.118,14.174,6.571,13.144,4.772,13.143 M17.503,1.163c0.009-0.116,0.048-0.215,0.086-0.268c0.042-0.055,0.056-0.047,0.056-0.049
		c0,0,0.014-0.006,0.055,0.049c0.04,0.053,0.079,0.15,0.086,0.267l0.009,0.119v0.538l-0.283,0.087h-0.015V1.26L17.503,1.163z
		 M18.388,1.927V1.264L18.4,1.231l-0.013-0.053V0.844h-0.061c-0.092-0.308-0.308-0.572-0.683-0.594
		c-0.375,0.022-0.59,0.286-0.684,0.594h-0.059v0.327L16.89,1.21l0.012,0.04v0.671C8.211,2.228,1.147,8.597,0.274,16.727l0.585,0.099
		c0.424-1.769,2.013-3.087,3.913-3.087c1.951,0,3.565,1.396,3.933,3.243l0.019,0.092l-0.011,0.147h0.609l0.046-0.239
		c0.369-1.847,1.983-3.243,3.933-3.243c1.899,0,3.476,1.323,3.898,3.093v14.2h0.002l0.019,2.282
		c-0.004,1.202-0.934,2.183-2.073,2.187c-1.139-0.004-2.069-0.984-2.073-2.187c0-0.235-0.191-0.426-0.424-0.426
		c-0.236,0-0.426,0.19-0.427,0.425c0.003,1.671,1.314,3.033,2.924,3.037c1.609-0.004,2.92-1.366,2.923-3.036l0.021-2.282V16.32
		c0.58-1.508,2.032-2.581,3.743-2.581c1.951,0,3.566,1.396,3.933,3.243l0.049,0.24h0.598l-0.007-0.116l0.023-0.124
		c0.369-1.847,1.983-3.243,3.936-3.243c1.834,0,3.379,1.229,3.865,2.906l0.58-0.118C33.854,8.546,26.923,2.31,18.388,1.927"/>
	<path clip-path="url(#SVGID_2_)" fill="none" stroke="#000000" stroke-width="0.5" stroke-miterlimit="10" d="M30.365,13.143
		c-1.805,0.001-3.358,1.039-4.115,2.547c-0.01-0.072-0.02-0.147-0.033-0.222c-0.003-0.017-0.005-0.033-0.008-0.051
		c-0.009-0.06-0.018-0.123-0.029-0.185c-0.003-0.025-0.008-0.047-0.011-0.072c-0.01-0.059-0.019-0.12-0.03-0.182
		c-0.005-0.027-0.009-0.051-0.014-0.078c-0.012-0.078-0.027-0.159-0.042-0.241c-0.005-0.025-0.009-0.051-0.013-0.079
		c-0.015-0.068-0.027-0.138-0.039-0.211c-0.008-0.04-0.018-0.08-0.024-0.121c-0.011-0.053-0.021-0.107-0.033-0.163
		c-0.008-0.045-0.018-0.091-0.025-0.137c-0.012-0.051-0.022-0.104-0.034-0.158c-0.009-0.048-0.02-0.096-0.031-0.145
		c-0.012-0.058-0.023-0.114-0.037-0.172c-0.02-0.087-0.04-0.177-0.06-0.266c-0.011-0.052-0.024-0.104-0.037-0.158
		c-0.013-0.058-0.028-0.115-0.042-0.175c-0.011-0.048-0.024-0.096-0.036-0.145c-0.015-0.062-0.031-0.122-0.046-0.185
		c-0.012-0.047-0.024-0.095-0.037-0.141c-0.016-0.065-0.033-0.128-0.051-0.194c-0.01-0.041-0.022-0.084-0.034-0.125
		c-0.034-0.125-0.07-0.252-0.104-0.38c-0.016-0.046-0.028-0.092-0.041-0.138c-0.021-0.066-0.039-0.13-0.06-0.195
		c-0.015-0.051-0.031-0.104-0.047-0.157c-0.019-0.063-0.041-0.128-0.06-0.192c-0.019-0.055-0.036-0.112-0.056-0.167
		c-0.019-0.063-0.04-0.124-0.061-0.188c-0.023-0.068-0.046-0.138-0.071-0.209c-0.015-0.045-0.03-0.09-0.046-0.135
		c-0.071-0.201-0.144-0.404-0.223-0.606c-0.021-0.054-0.041-0.107-0.063-0.16c-0.057-0.149-0.117-0.296-0.179-0.445
		c-0.029-0.071-0.059-0.139-0.088-0.209c-0.059-0.134-0.117-0.267-0.177-0.402c-0.033-0.073-0.068-0.147-0.104-0.22
		C24.064,8.149,24,8.018,23.936,7.888c-0.035-0.072-0.071-0.145-0.108-0.217c-0.071-0.139-0.146-0.276-0.22-0.414
		c-0.033-0.06-0.067-0.121-0.102-0.182c-0.104-0.186-0.215-0.373-0.329-0.556c-0.005-0.008-0.01-0.018-0.016-0.027
		c-0.12-0.193-0.246-0.383-0.375-0.572c-0.034-0.048-0.07-0.095-0.104-0.143c-0.096-0.136-0.192-0.271-0.295-0.403
		C22.338,5.312,22.289,5.25,22.24,5.19c-0.091-0.117-0.188-0.232-0.283-0.343c-0.054-0.065-0.111-0.127-0.167-0.19
		c-0.096-0.108-0.196-0.213-0.297-0.318C21.436,4.28,21.377,4.22,21.318,4.16c-0.109-0.105-0.222-0.209-0.333-0.31
		c-0.058-0.051-0.111-0.103-0.168-0.152c-0.145-0.124-0.291-0.243-0.444-0.358c-0.029-0.021-0.055-0.047-0.087-0.068
		c-0.181-0.136-0.37-0.267-0.564-0.39c-0.051-0.031-0.104-0.061-0.155-0.093c-0.117-0.07-0.233-0.142-0.354-0.209
		c7.208,0.67,13.065,5.666,14.675,12.198C33.041,13.779,31.778,13.144,30.365,13.143 M21.834,13.143
		c-1.707,0.001-3.188,0.929-3.985,2.305V2.621c0.049,0.018,0.097,0.033,0.142,0.05c0.113,0.044,0.224,0.091,0.334,0.139
		c0.099,0.044,0.198,0.09,0.294,0.137c0.107,0.052,0.213,0.107,0.317,0.164c0.094,0.051,0.185,0.104,0.276,0.159
		c0.103,0.06,0.201,0.124,0.3,0.188c0.089,0.059,0.177,0.118,0.263,0.18c0.095,0.068,0.189,0.139,0.283,0.211
		c0.082,0.064,0.163,0.131,0.244,0.197c0.092,0.076,0.184,0.152,0.271,0.233c0.077,0.069,0.152,0.14,0.227,0.212
		c0.086,0.083,0.172,0.166,0.255,0.252c0.072,0.075,0.145,0.152,0.214,0.228c0.08,0.089,0.161,0.177,0.24,0.269
		c0.067,0.078,0.133,0.16,0.199,0.24c0.076,0.093,0.153,0.187,0.225,0.284c0.063,0.083,0.124,0.167,0.185,0.251
		c0.073,0.099,0.144,0.196,0.213,0.298c0.058,0.086,0.115,0.172,0.17,0.259c0.069,0.102,0.136,0.206,0.2,0.31
		c0.054,0.088,0.104,0.177,0.158,0.265c0.061,0.106,0.127,0.214,0.186,0.322c0.049,0.089,0.095,0.179,0.145,0.269
		c0.058,0.11,0.116,0.219,0.174,0.331c0.046,0.089,0.087,0.18,0.131,0.27c0.054,0.113,0.11,0.226,0.163,0.339
		c0.042,0.09,0.08,0.182,0.12,0.272c0.049,0.115,0.101,0.229,0.148,0.342c0.037,0.09,0.072,0.181,0.108,0.271
		c0.046,0.115,0.094,0.231,0.139,0.346c0.035,0.092,0.068,0.185,0.103,0.277c0.04,0.111,0.083,0.223,0.122,0.335
		c0.146,0.422,0.279,0.841,0.399,1.249c0.001,0.002,0.001,0.003,0.001,0.005c0.061,0.201,0.115,0.399,0.167,0.594
		c0.002,0.007,0.003,0.015,0.005,0.022c0.053,0.19,0.101,0.378,0.146,0.56c0.003,0.011,0.004,0.022,0.006,0.033
		c0.044,0.178,0.085,0.354,0.124,0.527c0.003,0.015,0.006,0.028,0.009,0.044c0.037,0.166,0.072,0.327,0.106,0.485
		c0.003,0.02,0.006,0.037,0.01,0.056c0.031,0.151,0.06,0.3,0.086,0.442c0.004,0.024,0.008,0.045,0.013,0.068
		c0.025,0.135,0.049,0.266,0.07,0.393c0.002,0.01,0.003,0.019,0.005,0.029C24.706,13.887,23.361,13.144,21.834,13.143
		 M13.301,13.143c-1.532,0.001-2.885,0.751-3.721,1.901c0.203-1.192,0.555-2.824,1.151-4.523c0.042-0.119,0.087-0.239,0.131-0.359
		c0.032-0.085,0.06-0.169,0.092-0.255c0.034-0.084,0.07-0.17,0.103-0.255c0.049-0.122,0.096-0.245,0.147-0.366
		c0.033-0.079,0.068-0.156,0.101-0.232c0.057-0.13,0.111-0.26,0.171-0.388c0.034-0.076,0.072-0.149,0.107-0.224
		c0.063-0.129,0.123-0.258,0.189-0.387c0.038-0.075,0.079-0.149,0.117-0.225c0.066-0.126,0.134-0.253,0.202-0.378
		c0.042-0.074,0.086-0.146,0.129-0.22c0.071-0.123,0.143-0.246,0.217-0.367c0.046-0.075,0.094-0.146,0.14-0.219
		c0.077-0.118,0.153-0.236,0.23-0.351c0.052-0.073,0.104-0.144,0.155-0.217c0.08-0.111,0.16-0.222,0.243-0.332
		c0.056-0.072,0.114-0.141,0.169-0.212c0.084-0.105,0.17-0.21,0.257-0.311c0.062-0.07,0.122-0.139,0.185-0.205
		c0.089-0.1,0.178-0.196,0.27-0.29c0.066-0.068,0.133-0.132,0.2-0.197c0.093-0.091,0.187-0.18,0.285-0.266
		c0.071-0.065,0.143-0.125,0.216-0.188c0.097-0.082,0.197-0.163,0.297-0.241c0.077-0.058,0.156-0.116,0.235-0.173
		c0.101-0.074,0.205-0.145,0.31-0.215c0.083-0.053,0.168-0.106,0.253-0.159c0.107-0.063,0.215-0.126,0.324-0.185
		c0.09-0.049,0.18-0.097,0.273-0.143c0.11-0.055,0.222-0.105,0.337-0.155c0.096-0.043,0.193-0.084,0.293-0.123
		c0.047-0.02,0.096-0.034,0.144-0.053v12.762C16.449,14.046,14.987,13.144,13.301,13.143 M4.772,13.143
		c-1.437,0.001-2.718,0.655-3.565,1.682C2.802,8.265,8.683,3.241,15.92,2.577c-0.118,0.065-0.23,0.135-0.345,0.204
		c-0.056,0.035-0.117,0.068-0.172,0.103c-0.192,0.121-0.376,0.248-0.558,0.383c-0.045,0.035-0.088,0.07-0.133,0.105
		c-0.134,0.105-0.267,0.21-0.396,0.321c-0.065,0.054-0.125,0.113-0.188,0.17c-0.105,0.094-0.211,0.192-0.311,0.291
		c-0.066,0.064-0.128,0.128-0.193,0.194c-0.093,0.099-0.187,0.197-0.28,0.3c-0.06,0.067-0.122,0.135-0.181,0.206
		c-0.09,0.104-0.178,0.213-0.266,0.323c-0.055,0.066-0.11,0.134-0.161,0.202c-0.094,0.123-0.186,0.248-0.276,0.374
		c-0.041,0.058-0.083,0.114-0.124,0.173c-0.127,0.184-0.249,0.37-0.367,0.56c-0.022,0.036-0.044,0.073-0.065,0.109
		c-0.096,0.155-0.19,0.312-0.28,0.472c-0.041,0.073-0.08,0.145-0.12,0.219c-0.066,0.124-0.135,0.248-0.199,0.373
		c-0.043,0.083-0.084,0.166-0.125,0.249c-0.058,0.118-0.114,0.236-0.17,0.354c-0.041,0.086-0.081,0.173-0.121,0.26
		c-0.052,0.115-0.103,0.23-0.152,0.346c-0.038,0.088-0.077,0.175-0.112,0.263c-0.049,0.117-0.095,0.233-0.14,0.35
		c-0.034,0.087-0.07,0.173-0.103,0.258c-0.047,0.124-0.09,0.246-0.135,0.369c-0.026,0.072-0.053,0.143-0.079,0.216
		c-0.092,0.262-0.178,0.523-0.259,0.78c-0.001,0.006-0.003,0.011-0.004,0.016c-0.162,0.517-0.301,1.019-0.422,1.499
		c-0.002,0.004-0.003,0.01-0.004,0.016c-0.121,0.479-0.224,0.936-0.309,1.36c-0.001,0.006-0.003,0.011-0.004,0.018
		c-0.02,0.101-0.04,0.2-0.058,0.299c-0.001,0.004-0.001,0.007-0.002,0.011c-0.039,0.204-0.075,0.4-0.107,0.584v0.003
		c-0.014,0.084-0.028,0.165-0.041,0.245c-0.004,0.022-0.007,0.043-0.01,0.066c-0.009,0.057-0.018,0.112-0.027,0.167
		c-0.004,0.028-0.008,0.056-0.013,0.083c-0.005,0.043-0.011,0.085-0.018,0.126c-0.004,0.025-0.008,0.054-0.012,0.079
		C8.118,14.174,6.571,13.144,4.772,13.143 M17.503,1.163c0.009-0.116,0.048-0.215,0.086-0.268c0.042-0.055,0.056-0.047,0.056-0.049
		c0,0,0.014-0.006,0.055,0.049c0.04,0.053,0.079,0.15,0.086,0.267l0.009,0.119v0.538l-0.283,0.087h-0.015V1.26L17.503,1.163z
		 M18.388,1.927V1.264L18.4,1.231l-0.013-0.053V0.844h-0.061c-0.092-0.308-0.308-0.572-0.683-0.594
		c-0.375,0.022-0.59,0.286-0.684,0.594h-0.059v0.327L16.89,1.21l0.012,0.04v0.671C8.211,2.228,1.147,8.597,0.274,16.727l0.585,0.099
		c0.424-1.769,2.013-3.087,3.913-3.087c1.951,0,3.565,1.396,3.933,3.243l0.019,0.092l-0.011,0.147h0.609l0.046-0.239
		c0.369-1.847,1.983-3.243,3.933-3.243c1.899,0,3.476,1.323,3.898,3.093v14.2h0.002l0.019,2.282
		c-0.004,1.202-0.934,2.183-2.073,2.187c-1.139-0.004-2.069-0.984-2.073-2.187c0-0.235-0.191-0.426-0.424-0.426
		c-0.236,0-0.426,0.19-0.427,0.425c0.003,1.671,1.314,3.033,2.924,3.037c1.609-0.004,2.92-1.366,2.923-3.036l0.021-2.282V16.32
		c0.58-1.508,2.032-2.581,3.743-2.581c1.951,0,3.566,1.396,3.933,3.243l0.049,0.24h0.598l-0.007-0.116l0.023-0.124
		c0.369-1.847,1.983-3.243,3.936-3.243c1.834,0,3.379,1.229,3.865,2.906l0.58-0.118C33.854,8.546,26.923,2.31,18.388,1.927"/>
</g>
</svg>
