<?xml version="1.0" encoding="utf-8"?>
<!-- Generator: Adobe Illustrator 15.1.0, SVG Export Plug-In . SVG Version: 6.00 Build 0)  -->
<!DOCTYPE svg PUBLIC "-//W3C//DTD SVG 1.1//EN" "http://www.w3.org/Graphics/SVG/1.1/DTD/svg11.dtd">
<svg version="1.1" id="Слой_1" xmlns="http://www.w3.org/2000/svg" xmlns:xlink="http://www.w3.org/1999/xlink" x="0px" y="0px"
	 width="40.72px" height="32.909px" viewBox="0 0 40.72 32.909" enable-background="new 0 0 40.72 32.909" xml:space="preserve">
<path fill="#241F21" d="M1.446,11.742h9.372l1.441,3.171l7.15,15.73L1.446,11.742z M11.472,11.742h17.829l-8.909,19.623
	L11.472,11.742z M29.956,11.742h0.458V11.74h8.91L21.387,30.616L29.956,11.742z M20.388,0.997l5.817,6.763l2.91,3.386H11.66
	L20.388,0.997z M21.043,0.846h9.383l8.935,10.3h-9.458L21.043,0.846z M10.344,0.845h9.387l-6.652,7.736l-2.204,2.565H1.408
	L10.344,0.845z M10.071,0.25L9.983,0.352L0.62,11.146l-0.112,0.13l-0.036,0.043L0.345,11.46l0.28,0.28l19.423,20.443l0.001-0.005
	l0.05,0.057l0.072,0.075l0.213,0.231l0.293-0.316h0.009v-0.007l0.096-0.102L40.145,11.74l0.253-0.265l-0.143-0.202l-0.012-0.019
	l-0.095-0.108L30.697,0.25H10.071z"/>
<g>
	<defs>
		<rect id="SVGID_1_" width="40.72" height="32.909"/>
	</defs>
	<clipPath id="SVGID_2_">
		<use xlink:href="#SVGID_1_"  overflow="visible"/>
	</clipPath>
	<path clip-path="url(#SVGID_2_)" fill="none" stroke="#000000" stroke-width="0.5" stroke-miterlimit="10" d="M21.387,30.616
		l8.569-18.875h0.457v-0.001h8.91L21.387,30.616z M1.446,11.742h9.372l1.441,3.171l7.15,15.73L1.446,11.742z M10.343,0.845h9.387
		L13.08,8.581l-2.205,2.565H1.408L10.343,0.845z M29.302,11.742l-8.909,19.624l-8.92-19.624H29.302z M26.205,7.761l2.91,3.385
		H11.659l8.729-10.149L26.205,7.761z M30.427,0.846l8.933,10.3h-9.458l-8.859-10.3H30.427z M40.256,11.273l-0.014-0.019
		l-0.094-0.108L30.697,0.25H10.071L9.982,0.352L0.621,11.146l-0.112,0.13l-0.037,0.043L0.344,11.46l0.28,0.281l19.424,20.442
		l0.001-0.004l0.05,0.055l0.07,0.076l0.215,0.231l0.292-0.315h0.01v-0.008l0.095-0.101l19.363-20.376l0.253-0.266L40.256,11.273z"/>
</g>
</svg>
