<?xml version="1.0" encoding="utf-8"?>
<!-- Generator: Adobe Illustrator 15.1.0, SVG Export Plug-In . SVG Version: 6.00 Build 0)  -->
<!DOCTYPE svg PUBLIC "-//W3C//DTD SVG 1.1//EN" "http://www.w3.org/Graphics/SVG/1.1/DTD/svg11.dtd">
<svg version="1.1" id="Слой_1" xmlns="http://www.w3.org/2000/svg" xmlns:xlink="http://www.w3.org/1999/xlink" x="0px" y="0px"
	 width="29.414px" height="29.096px" viewBox="0 0 29.414 29.096" enable-background="new 0 0 29.414 29.096" xml:space="preserve">
<g>
	<defs>
		<rect id="SVGID_1_" width="29.414" height="29.096"/>
	</defs>
	<clipPath id="SVGID_2_">
		<use xlink:href="#SVGID_1_"  overflow="visible"/>
	</clipPath>
	<path clip-path="url(#SVGID_2_)" fill="none" stroke="#fff" stroke-linecap="round" d="M25.398,13.849
		c-1.545,0-2.115,2.446-3.784,2.446s-1.762-2.446-3.388-2.446c-1.625,0-2.073,2.446-3.586,2.446c-1.515,0-1.708-2.446-3.587-2.446
		c-1.878,0-2.267,2.446-3.94,2.446c-1.673,0-1.8-2.446-3.495-2.446"/>
	<path clip-path="url(#SVGID_2_)" fill="none" stroke="#fff" stroke-linecap="round" d="M0.5,14.548
		c0,7.759,6.29,14.048,14.048,14.048c5.663,0,10.544-3.352,12.768-8.179"/>
	<path clip-path="url(#SVGID_2_)" fill="none" stroke="#fff" stroke-linecap="round" d="M28.597,14.548
		c0-7.759-6.29-14.048-14.048-14.048c-5.431,0-10.142,3.082-12.48,7.592"/>
	<polyline clip-path="url(#SVGID_2_)" fill="none" stroke="#fff" stroke-linecap="round" points="22.582,21.307 27.576,19.969 
		28.914,24.962 	"/>
	<polyline clip-path="url(#SVGID_2_)" fill="none" stroke="#fff" stroke-linecap="round" points="6.811,8.029 1.661,8.48 
		1.208,3.33 	"/>
</g>
</svg>
