<!-- Generator: Adobe Illustrator 17.0.0, SVG Export Plug-In  -->
<svg version="1.1"
	 xmlns="http://www.w3.org/2000/svg" xmlns:xlink="http://www.w3.org/1999/xlink" xmlns:a="http://ns.adobe.com/AdobeSVGViewerExtensions/3.0/"
	 x="0px" y="0px" width="215.71px" height="53.71px" viewBox="0 0 215.71 53.71" enable-background="new 0 0 215.71 53.71"
	 xml:space="preserve">
<defs>
</defs>
<path d="M10.741,8.95h5.015v35.807h-5.015V8.95z M24.347,8.95h5.015v35.807h-5.015V8.95z M37.957,8.95h5.012v35.807h-5.012V8.95z
	 M0,53.71h53.71V0H0V53.71z"/>
<g>
	<defs>
		<rect id="SVGID_1_" width="215.71" height="53.71"/>
	</defs>
	<clipPath id="SVGID_2_">
		<use xlink:href="#SVGID_1_"  overflow="visible"/>
	</clipPath>
	<path clip-path="url(#SVGID_2_)" d="M113.431,40.992l3.041,2.058l-2.178,3.267l-3.147-2.178c-1.018,0.797-2.242,1.346-3.671,1.647
		c-1.43,0.301-3.578,0.478-6.446,0.531H84.392c-3.301-0.044-5.955-0.449-7.96-1.215c-2.005-0.766-3.51-2.078-4.514-3.937
		c-1.005-1.859-1.525-4.457-1.561-7.794V21.62c0.045-3.16,0.485-5.698,1.322-7.615c0.836-1.916,2.27-3.346,4.302-4.289
		c2.031-0.942,4.835-1.431,8.411-1.467h16.531c3.196,0,5.765,0.37,7.708,1.109c1.943,0.739,3.412,2.082,4.408,4.03
		c0.996,1.947,1.525,4.691,1.587,8.232v11.751C114.626,36.443,114.228,38.983,113.431,40.992 M110.709,33.371V21.62
		c-0.026-2.178-0.199-3.886-0.518-5.125c-0.318-1.239-0.832-2.177-1.54-2.815c-0.708-0.637-1.656-1.067-2.842-1.288
		c-1.186-0.221-2.797-0.332-4.833-0.332H84.445c-1.983,0-3.625,0.166-4.926,0.498c-1.301,0.332-2.335,0.872-3.1,1.62
		c-0.766,0.748-1.315,1.722-1.646,2.921c-0.333,1.2-0.498,2.707-0.498,4.521v11.751c0,1.762,0.179,3.225,0.537,4.388
		c0.359,1.165,0.936,2.089,1.733,2.775s1.83,1.18,3.1,1.481c1.27,0.301,2.87,0.465,4.8,0.491h16.425
		c1.106,0,2.281-0.071,3.525-0.212c1.244-0.142,2.118-0.359,2.623-0.651l-13.172-8.484l2.39-3.161l13.716,8.923
		C110.456,37.735,110.709,35.885,110.709,33.371"/>
	<path clip-path="url(#SVGID_2_)" fill="none" stroke="#000000" stroke-width="0.413" stroke-miterlimit="10" d="M113.431,40.992
		l3.041,2.058l-2.178,3.267l-3.147-2.178c-1.018,0.797-2.242,1.346-3.671,1.647c-1.43,0.301-3.578,0.478-6.446,0.531H84.392
		c-3.301-0.044-5.955-0.449-7.96-1.215c-2.005-0.766-3.51-2.078-4.514-3.937c-1.005-1.859-1.525-4.457-1.561-7.794V21.62
		c0.045-3.16,0.485-5.698,1.322-7.615c0.836-1.916,2.27-3.346,4.302-4.289c2.031-0.942,4.835-1.431,8.411-1.467h16.531
		c3.196,0,5.765,0.37,7.708,1.109c1.943,0.739,3.412,2.082,4.408,4.03c0.996,1.947,1.525,4.691,1.587,8.232v11.751
		C114.626,36.443,114.228,38.983,113.431,40.992z M110.709,33.371V21.62c-0.026-2.178-0.199-3.886-0.518-5.125
		c-0.318-1.239-0.832-2.177-1.54-2.815c-0.708-0.637-1.656-1.067-2.842-1.288c-1.186-0.221-2.797-0.332-4.833-0.332H84.445
		c-1.983,0-3.625,0.166-4.926,0.498c-1.301,0.332-2.335,0.872-3.1,1.62c-0.766,0.748-1.315,1.722-1.646,2.921
		c-0.333,1.2-0.498,2.707-0.498,4.521v11.751c0,1.762,0.179,3.225,0.537,4.388c0.359,1.165,0.936,2.089,1.733,2.775
		s1.83,1.18,3.1,1.481c1.27,0.301,2.87,0.465,4.8,0.491h16.425c1.106,0,2.281-0.071,3.525-0.212
		c1.244-0.142,2.118-0.359,2.623-0.651l-13.172-8.484l2.39-3.161l13.716,8.923C110.456,37.735,110.709,35.885,110.709,33.371z"/>
	<path clip-path="url(#SVGID_2_)" d="M126.053,46.317V8.569h28.056c4.497,0,7.816,0.799,9.958,2.396
		c2.142,1.598,3.214,4.026,3.214,7.283c0,2.585-0.48,4.497-1.441,5.736c-0.961,1.24-2.06,2.05-3.3,2.43
		c0.682,0.151,1.461,0.507,2.337,1.068c0.877,0.563,1.678,1.488,2.404,2.776s1.088,2.941,1.088,4.959c0,2.735-0.493,4.92-1.48,6.553
		c-0.987,1.633-2.454,2.799-4.402,3.498c-1.947,0.7-4.412,1.049-7.395,1.049H126.053z M129.97,12.379v12.295h25.666
		c2.691,0,4.643-0.425,5.856-1.274c1.212-0.85,1.819-2.421,1.819-4.714c0-2.133-0.591-3.718-1.773-4.753
		c-1.182-1.036-3.149-1.554-5.902-1.554H129.97z M129.97,28.485v14.022h26.648c2.621,0,4.581-0.576,5.883-1.727
		c1.301-1.15,1.952-3.005,1.952-5.563c0-2.417-0.686-4.143-2.059-5.178c-1.372-1.036-3.408-1.554-6.108-1.554H129.97z"/>
	<path clip-path="url(#SVGID_2_)" fill="none" stroke="#000000" stroke-width="0.413" stroke-miterlimit="10" d="M126.053,46.317
		V8.569h28.056c4.497,0,7.816,0.799,9.958,2.396c2.142,1.598,3.214,4.026,3.214,7.283c0,2.585-0.48,4.497-1.441,5.736
		c-0.961,1.24-2.06,2.05-3.3,2.43c0.682,0.151,1.461,0.507,2.337,1.068c0.877,0.563,1.678,1.488,2.404,2.776
		s1.088,2.941,1.088,4.959c0,2.735-0.493,4.92-1.48,6.553c-0.987,1.633-2.454,2.799-4.402,3.498c-1.947,0.7-4.412,1.049-7.395,1.049
		H126.053z M129.97,12.379v12.295h25.666c2.691,0,4.643-0.425,5.856-1.274c1.212-0.85,1.819-2.421,1.819-4.714
		c0-2.133-0.591-3.718-1.773-4.753c-1.182-1.036-3.149-1.554-5.902-1.554H129.97z M129.97,28.485v14.022h26.648
		c2.621,0,4.581-0.576,5.883-1.727c1.301-1.15,1.952-3.005,1.952-5.563c0-2.417-0.686-4.143-2.059-5.178
		c-1.372-1.036-3.408-1.554-6.108-1.554H129.97z"/>
	<polygon clip-path="url(#SVGID_2_)" points="179.783,46.317 179.783,8.568 213.23,8.568 213.23,12.379 183.7,12.379 183.7,24.887 
		212.46,24.887 212.46,28.697 183.7,28.697 183.7,46.317 	"/>
	<polygon clip-path="url(#SVGID_2_)" fill="none" stroke="#000000" stroke-width="0.413" stroke-miterlimit="10" points="
		179.783,46.317 179.783,8.568 213.23,8.568 213.23,12.379 183.7,12.379 183.7,24.887 212.46,24.887 212.46,28.697 183.7,28.697 
		183.7,46.317 	"/>
</g>
</svg>
