<?xml version="1.0" encoding="utf-8"?>
<!-- Generator: Adobe Illustrator 15.1.0, SVG Export Plug-In . SVG Version: 6.00 Build 0)  -->
<!DOCTYPE svg PUBLIC "-//W3C//DTD SVG 1.1//EN" "http://www.w3.org/Graphics/SVG/1.1/DTD/svg11.dtd">
<svg version="1.1" id="Слой_1" xmlns="http://www.w3.org/2000/svg" xmlns:xlink="http://www.w3.org/1999/xlink" x="0px" y="0px"
	 width="30.55px" height="29.097px" viewBox="0 0 30.55 29.097" enable-background="new 0 0 30.55 29.097" xml:space="preserve">
<g>
	<defs>
		<rect id="SVGID_1_" y="0" width="30.55" height="29.097"/>
	</defs>
	<clipPath id="SVGID_2_">
		<use xlink:href="#SVGID_1_"  overflow="visible"/>
	</clipPath>
	<path clip-path="url(#SVGID_2_)" fill="none" stroke="#fff" d="M15.752,1.094c0,0-0.473-1.336-0.944,0l-2.922,8.257
		c0,0-0.474,1.336-1.891,1.372l-8.768,0.224c0,0-1.417,0.036-0.292,0.897l6.962,5.328c0,0,1.126,0.862,0.721,2.22l-2.496,8.396
		c0,0-0.403,1.358,0.765,0.556l7.225-4.966c0,0,1.168-0.803,2.336,0l7.227,4.966c0,0,1.168,0.803,0.765-0.556l-2.497-8.396
		c0,0-0.404-1.357,0.722-2.22l6.962-5.328c0,0,1.126-0.861-0.291-0.897l-8.77-0.224c0,0-1.417-0.036-1.889-1.372L15.752,1.094z"/>
</g>
</svg>
