<?xml version="1.0" encoding="utf-8"?>
<!-- Generator: Adobe Illustrator 15.1.0, SVG Export Plug-In . SVG Version: 6.00 Build 0)  -->
<!DOCTYPE svg PUBLIC "-//W3C//DTD SVG 1.1//EN" "http://www.w3.org/Graphics/SVG/1.1/DTD/svg11.dtd">
<svg version="1.1" id="Слой_1" xmlns="http://www.w3.org/2000/svg" xmlns:xlink="http://www.w3.org/1999/xlink" x="0px" y="0px"
	 width="23.12px" height="36.232px" viewBox="0 0 23.12 36.232" enable-background="new 0 0 23.12 36.232" xml:space="preserve">
<g>
	<defs>
		<rect id="SVGID_1_" width="23.12" height="36.232"/>
	</defs>
	<clipPath id="SVGID_2_">
		<use xlink:href="#SVGID_1_"  overflow="visible"/>
	</clipPath>
	<path clip-path="url(#SVGID_2_)" fill="#241F21" d="M11.56,31.999c-4.045-0.007-7.318-3.278-7.326-7.326
		c0.008-4.046,3.281-7.319,7.326-7.326c4.046,0.006,7.318,3.28,7.327,7.326C18.878,28.72,15.605,31.992,11.56,31.999 M11.56,16.751
		c-4.375,0-7.92,3.546-7.92,7.921c0,4.377,3.546,7.923,7.92,7.923c4.375,0,7.922-3.546,7.922-7.923
		C19.481,20.297,15.935,16.751,11.56,16.751 M22.272,24.672c0,2.959-1.197,5.637-3.138,7.575c-1.939,1.94-4.616,3.139-7.575,3.139
		c-2.96,0-5.635-1.198-7.576-3.139c-1.937-1.938-3.137-4.616-3.137-7.575s1.2-5.636,3.137-7.576
		c1.941-1.939,4.617-3.138,7.576-3.138c2.959,0,5.636,1.199,7.575,3.138C21.075,19.037,22.272,21.713,22.272,24.672L22.272,24.672z
		 M12.334,11.155v1.195c-0.077,0.029-0.239,0.072-0.416,0.066h-0.715c-0.166,0.001-0.317-0.027-0.402-0.059
		c-0.005-0.002-0.011-0.004-0.015-0.006v-1.195c0.078-0.028,0.239-0.071,0.417-0.065h0.715c0.165,0,0.315,0.027,0.402,0.059
		C12.325,11.152,12.329,11.154,12.334,11.155 M6.258,10.444L1.557,0.846h10.39l2.695,5.506l1.818,3.712h0.001l0.186,0.38H6.258z
		 M10.19,11.055v0.514H5.751c-0.138,0-0.252-0.115-0.253-0.251v-0.797c0-0.058,0.023-0.11,0.057-0.153l0.33,0.672h4.308
		C10.192,11.045,10.19,11.049,10.19,11.055 M21.642,0.846L17.42,9.47c-0.018-0.001-0.033-0.001-0.051-0.001h-0.535l-0.371-0.757
		L12.61,0.846H21.642z M17.622,11.318c-0.001,0.136-0.116,0.251-0.252,0.252l-4.439-0.001v-0.514
		c-0.003-0.006-0.004-0.01-0.004-0.015h4.392l0.14-0.295l0.146-0.301c0.01,0.025,0.018,0.05,0.018,0.077V11.318z M22.869,24.672
		c0-5.628-4.111-10.294-9.495-11.163v-0.267c-0.001-0.314-0.191-0.581-0.462-0.695c0.008-0.03,0.014-0.061,0.019-0.097v-0.379h4.439
		c0.416-0.001,0.754-0.337,0.755-0.754v-0.797c0-0.233-0.108-0.439-0.274-0.578l4.748-9.693H0.601l0.21,0.429l4.516,9.22
		c-0.199,0.136-0.332,0.362-0.332,0.622v0.797c0,0.417,0.338,0.754,0.756,0.754h4.438v0.379c0.004,0.036,0.011,0.067,0.019,0.097
		c-0.272,0.115-0.461,0.382-0.462,0.695v0.267C4.363,14.379,0.25,19.044,0.25,24.672c0,6.246,5.063,11.31,11.31,11.31
		C17.808,35.982,22.869,30.918,22.869,24.672L22.869,24.672z"/>
	<path clip-path="url(#SVGID_2_)" fill="none" stroke="#000000" stroke-width="0.5" stroke-miterlimit="10" d="M11.56,31.999
		c-4.045-0.007-7.318-3.278-7.326-7.326c0.008-4.046,3.281-7.319,7.326-7.326c4.046,0.006,7.318,3.28,7.327,7.326
		C18.878,28.72,15.605,31.992,11.56,31.999 M11.56,16.751c-4.375,0-7.92,3.546-7.92,7.921c0,4.377,3.546,7.923,7.92,7.923
		c4.375,0,7.922-3.546,7.922-7.923C19.481,20.297,15.935,16.751,11.56,16.751 M22.272,24.672c0,2.959-1.197,5.637-3.138,7.575
		c-1.939,1.94-4.616,3.139-7.575,3.139c-2.96,0-5.635-1.198-7.576-3.139c-1.937-1.938-3.137-4.616-3.137-7.575
		s1.2-5.636,3.137-7.576c1.941-1.939,4.617-3.138,7.576-3.138c2.959,0,5.636,1.199,7.575,3.138
		C21.075,19.037,22.272,21.713,22.272,24.672L22.272,24.672z M12.334,11.155v1.195c-0.077,0.029-0.239,0.072-0.416,0.066h-0.715
		c-0.166,0.001-0.317-0.027-0.402-0.059c-0.005-0.002-0.011-0.004-0.015-0.006v-1.195c0.078-0.028,0.239-0.071,0.417-0.065h0.715
		c0.165,0,0.315,0.027,0.402,0.059C12.325,11.152,12.329,11.154,12.334,11.155 M6.258,10.444L1.557,0.846h10.39l2.695,5.506
		l1.818,3.712h0.001l0.186,0.38H6.258z M10.19,11.055v0.514H5.751c-0.138,0-0.252-0.115-0.253-0.251v-0.797
		c0-0.058,0.023-0.11,0.057-0.153l0.33,0.672h4.308C10.192,11.045,10.19,11.049,10.19,11.055 M21.642,0.846L17.42,9.47
		c-0.018-0.001-0.033-0.001-0.051-0.001h-0.535l-0.371-0.757L12.61,0.846H21.642z M17.622,11.318
		c-0.001,0.136-0.116,0.251-0.252,0.252l-4.439-0.001v-0.514c-0.003-0.006-0.004-0.01-0.004-0.015h4.392l0.14-0.295l0.146-0.301
		c0.01,0.025,0.018,0.05,0.018,0.077V11.318z M22.869,24.672c0-5.628-4.111-10.294-9.495-11.163v-0.267
		c-0.001-0.314-0.191-0.581-0.462-0.695c0.008-0.03,0.014-0.061,0.019-0.097v-0.379h4.439c0.416-0.001,0.754-0.337,0.755-0.754
		v-0.797c0-0.233-0.108-0.439-0.274-0.578l4.748-9.693H0.601l0.21,0.429l4.516,9.22c-0.199,0.136-0.332,0.362-0.332,0.622v0.797
		c0,0.417,0.338,0.754,0.756,0.754h4.438v0.379c0.004,0.036,0.011,0.067,0.019,0.097c-0.272,0.115-0.461,0.382-0.462,0.695v0.267
		C4.363,14.379,0.25,19.044,0.25,24.672c0,6.246,5.063,11.31,11.31,11.31C17.808,35.982,22.869,30.918,22.869,24.672L22.869,24.672z
		"/>
</g>
</svg>
